Coordinates
version=1
nRows=22
nColumns=24
inDegrees=yes

Units are S.I. units (second, meters, Newtons, ...)
Angles are in degrees.

endheader
time	pelvis_tilt	pelvis_list	pelvis_rotation	pelvis_tx	pelvis_ty	pelvis_tz	hip_flexion_r	hip_adduction_r	hip_rotation_r	knee_angle_r	ankle_angle_r	subtalar_angle_r	mtp_angle_r	hip_flexion_l	hip_adduction_l	hip_rotation_l	knee_angle_l	ankle_angle_l	subtalar_angle_l	mtp_angle_l	lumbar_extension	lumbar_bending	lumbar_rotation
      4.31000000	    -15.70158414	     -4.40849427	      2.41969150	     -1.96536990	     -0.04487436	     -0.31880680	     44.34719215	      2.32755883	    -16.39605107	    -15.78536575	     -0.76212025	     -5.12373029	     16.75759450	     -2.88012050	     -4.03276855	     -6.71962530	    -17.16801093	     10.63210957	      9.21369955	      5.34160979	     21.38783863	      1.50187179	    -18.51978474
      4.31500000	    -15.82386691	     -4.54252420	      2.48056036	     -1.95758321	     -0.04606335	     -0.31828704	     44.61380982	      2.41700186	    -16.15052139	    -16.63359516	     -1.44296081	     -6.10981257	     16.72720708	     -2.86828195	     -4.31241439	     -6.51621293	    -17.88733259	     10.11575387	      9.34029971	      5.41882422	     21.67711110	      1.63567434	    -18.65985935
      4.32000000	    -15.86423724	     -4.75427024	      2.50241329	     -1.94968043	     -0.04713007	     -0.31771236	     44.78897692	      2.60975810	    -15.94638143	    -17.51702934	     -2.21584542	     -7.10048719	     16.65471496	     -2.92090215	     -4.70045546	     -6.48382036	    -18.65752872	      9.55997377	      9.61018247	      5.58331576	     21.89411138	      1.86802120	    -18.79132617
      4.32500000	    -15.88199704	     -4.99864835	      2.51618864	     -1.94175178	     -0.04811188	     -0.31711297	     44.94486661	      2.85048807	    -15.68756264	    -18.43572723	     -3.07837961	     -8.18348731	     16.51563716	     -2.95873822	     -5.13316924	     -6.48664289	    -19.48411679	      8.92302848	      9.88369282	      5.82271910	     22.09095162	      2.13523626	    -18.93075266
      4.33000000	    -15.90802181	     -5.26343864	      2.49762319	     -1.93381206	     -0.04903887	     -0.31644417	     45.10841524	      3.15419767	    -15.28289056	    -19.37051729	     -3.97091534	     -9.33628657	     16.27025762	     -2.92597865	     -5.60523496	     -6.62355430	    -20.40939037	      8.16508991	     10.15068426	      6.21961846	     22.29674139	      2.43355565	    -19.02913208
      4.33500000	    -15.90180839	     -5.50724862	      2.43065072	     -1.92585719	     -0.04989488	     -0.31565797	     45.29006231	      3.48680417	    -14.83199381	    -20.44612130	     -4.79312665	    -10.42417282	     15.40700985	     -2.93971571	     -6.07272673	     -6.83766313	    -21.25044476	      7.15955112	     10.33913648	      7.61714918	     22.46496612	      2.72623836	    -19.09003905
      4.34000000	    -15.93610689	     -5.81883616	      2.46686493	     -1.91794651	     -0.05067233	     -0.31511004	     45.49631703	      3.79331297	    -14.46246041	    -21.48233132	     -5.60607812	    -11.57011738	     15.08906017	     -2.79032092	     -6.58249022	     -6.77669097	    -22.31185551	      6.22189522	     10.45680663	      7.81324347	     22.68427924	      3.05871058	    -19.25851529
      4.34500000	    -16.01997088	     -6.07157753	      2.29061613	     -1.90997750	     -0.05153497	     -0.31413194	     45.79692675	      4.24157845	    -13.80341997	    -22.62336191	     -6.29103226	    -12.67210088	     14.08134954	     -2.59025835	     -7.09626292	     -7.23382784	    -23.39383029	      5.09043443	     10.78499483	      8.83703970	     22.94538717	      3.39003210	    -19.21018237
      4.35000000	    -16.04945126	     -6.37102540	      2.25372135	     -1.90210003	     -0.05221593	     -0.31332740	     46.02452193	      4.64395704	    -13.25731296	    -23.76584839	     -6.81975454	    -13.70458125	     12.74945760	     -2.34756053	     -7.65475817	     -7.43118718	    -24.54583654	      3.76640021	     10.87618190	     10.07767524	     23.14555131	      3.71570243	    -19.31815709
      4.35500000	    -15.97526785	     -6.65576051	      2.27737939	     -1.89434042	     -0.05272958	     -0.31262888	     46.13864757	      5.00431501	    -12.73936362	    -24.94424206	     -7.05675073	    -14.47493085	     10.88537000	     -2.13860900	     -8.19206393	     -7.51984967	    -25.73883661	      2.21582625	     10.69716229	     11.75190966	     23.21434116	      4.01443310	    -19.47635789
      4.36000000	    -15.97006559	     -6.95806786	      2.21959353	     -1.88642131	     -0.05324613	     -0.31181496	     46.28875346	      5.43782217	    -12.26375032	    -26.06187652	     -7.21126146	    -15.27383482	      9.40663785	     -1.83395524	     -8.77120292	     -7.74508166	    -26.99865152	      0.55493662	     10.66793163	     13.07423210	     23.38386739	      4.35098315	    -19.57209604
      4.36500000	    -15.93285181	     -7.25290453	      2.18864101	     -1.87867375	     -0.05371355	     -0.31099352	     46.39168160	      5.85414630	    -11.85051102	    -27.15381019	     -7.21105015	    -16.00067889	      7.90231349	     -1.45864269	     -9.36448538	     -7.96468054	    -28.37574621	     -1.22553350	     10.57499983	     14.57282426	     23.48738658	      4.66832044	    -19.66951734
      4.37000000	    -15.88085857	     -7.55675261	      2.17424620	     -1.87099092	     -0.05412327	     -0.31018654	     46.43879117	      6.27135179	    -11.49116995	    -28.18550400	     -7.03904658	    -16.61461734	      6.40583674	     -1.02338921	     -9.97718118	     -8.14249664	    -29.82138436	     -3.15098103	     10.39846634	     16.19130203	     23.56443691	      4.98522514	    -19.80187640
      4.37500000	    -15.79211993	     -7.84410713	      2.19239191	     -1.86339844	     -0.05443359	     -0.30940865	     46.40759085	      6.65022569	    -11.23814153	    -29.15890583	     -6.70847848	    -17.12056970	      4.94704051	     -0.55354987	    -10.57214807	     -8.23307256	    -31.31170338	     -5.24728930	     10.10416237	     17.91000942	     23.58890308	      5.27327485	    -19.95491569
      4.38000000	    -15.68320309	     -8.11886708	      2.22341355	     -1.85589799	     -0.05467546	     -0.30866554	     46.31133948	      6.99967589	    -11.08385160	    -30.06074077	     -6.24323114	    -17.50652968	      3.66063981	     -0.03636154	    -11.14716846	     -8.26136258	    -32.85156787	     -7.46454949	      9.69037146	     19.59551562	     23.57296040	      5.54688890	    -20.10631046
      4.38500000	    -15.56744487	     -8.38929282	      2.27746903	     -1.84857874	     -0.05488386	     -0.30795145	     46.17368974	      7.31892016	    -11.01780507	    -30.88968879	     -5.70528698	    -17.81603469	      2.66006795	      0.56942087	    -11.71214363	     -8.21452775	    -34.48459156	     -9.72510066	      9.19892492	     21.10762280	     23.51985458	      5.80765910	    -20.28649334
      4.39000000	    -15.46017795	     -8.65969378	      2.29323450	     -1.84119037	     -0.05503709	     -0.30725154	     45.97727390	      7.64877206	    -11.02952806	    -31.62397059	     -5.02273973	    -17.96743035	      1.83774263	      1.19854768	    -12.25866402	     -8.14791353	    -36.10072020	    -12.08414450	      8.59352719	     22.56834958	     23.48718034	      6.08997458	    -20.39021819
      4.39500000	    -15.35442616	     -8.92778046	      2.35551154	     -1.83407496	     -0.05517832	     -0.30659579	     45.75984503	      7.93371118	    -11.11578837	    -32.28935377	     -4.33691330	    -18.08486852	      1.34811669	      1.94744869	    -12.78824279	     -7.97035963	    -37.83968158	    -14.34922497	      7.95610092	     23.62899047	     23.41331707	      6.34900387	    -20.57026611
      4.40000000	    -15.22276666	     -9.22962816	      2.30905532	     -1.82690940	     -0.05527058	     -0.30588519	     45.44264337	      8.32642447	    -11.19539785	    -32.81775504	     -3.66582315	    -18.25522330	      1.32112149	      2.67027759	    -13.34842898	     -7.90487544	    -39.64625600	    -16.43976139	      7.36804598	     23.69989289	     23.31096926	      6.70031804	    -20.58107070
      4.40500000	    -15.22698582	     -9.46869404	      2.36490127	     -1.81997607	     -0.05542566	     -0.30526381	     45.27446958	      8.53840426	    -11.43566686	    -33.38445174	     -2.82112232	    -18.03226100	      0.88253339	      3.62777075	    -13.79108652	     -7.56661887	    -41.35678767	    -18.66687470	      6.43553919	     25.35155826	     23.32626258	      6.92744345	    -20.70153543
      4.41000000	    -15.10948288	     -9.75787359	      2.42751275	     -1.81314524	     -0.05541072	     -0.30470884	     44.91213226	      8.81624113	    -11.68888638	    -33.79605925	     -2.07680807	    -17.99723484	      0.90381407	      4.51943722	    -14.26633777	     -7.21767696	    -43.20008277	    -20.51848629	      5.64968938	     25.49349608	     23.20036243	      7.22190554	    -20.83600317
      4.41500000	    -15.03724833	    -10.07544469	      2.37421300	     -1.80633118	     -0.05543916	     -0.30405849	     44.55406976	      9.19735341	    -11.86299191	    -34.12842179	     -1.33541136	    -17.86476640	      1.00725029	      5.45177488	    -14.77468033	     -6.99572709	    -45.05715289	    -22.09655883	      4.80924851	     25.49495331	     23.10735086	      7.59241015	    -20.84615337
